<?xml version="1.0" encoding="UTF-8" standalone="no"?>
<svg
   xmlns:dc="http://purl.org/dc/elements/1.1/"
   xmlns:cc="http://creativecommons.org/ns#"
   xmlns:rdf="http://www.w3.org/1999/02/22-rdf-syntax-ns#"
   xmlns:svg="http://www.w3.org/2000/svg"
   xmlns="http://www.w3.org/2000/svg"
   xmlns:sodipodi="http://sodipodi.sourceforge.net/DTD/sodipodi-0.dtd"
   xmlns:inkscape="http://www.inkscape.org/namespaces/inkscape"
   version="1.1"
   x="0px"
   y="0px"
   viewBox="0 0 100 100"
   id="svg10"
   sodipodi:docname="noun_spreadsheet_773827.svg"
   width="100"
   height="100"
   inkscape:version="0.92.1 r15371">
  <metadata
     id="metadata16">
    <rdf:RDF>
      <cc:Work
         rdf:about="">
        <dc:format>image/svg+xml</dc:format>
        <dc:type
           rdf:resource="http://purl.org/dc/dcmitype/StillImage" />
        <dc:title></dc:title>
      </cc:Work>
    </rdf:RDF>
  </metadata>
  <defs
     id="defs14" />
  <sodipodi:namedview
     pagecolor="#ffffff"
     bordercolor="#666666"
     borderopacity="1"
     objecttolerance="10"
     gridtolerance="10"
     guidetolerance="10"
     inkscape:pageopacity="0"
     inkscape:pageshadow="2"
     inkscape:window-width="671"
     inkscape:window-height="480"
     id="namedview12"
     showgrid="false"
     inkscape:zoom="1.888"
     inkscape:cx="50"
     inkscape:cy="62.5"
     inkscape:window-x="0"
     inkscape:window-y="0"
     inkscape:window-maximized="0"
     inkscape:current-layer="svg10" />
  <g
     transform="translate(2.1186441,-951.93842)"
     id="g4">
    <path
       style="color:#000000;font-style:normal;font-variant:normal;font-weight:normal;font-stretch:normal;font-size:medium;line-height:normal;font-family:Sans;-inkscape-font-specification:Sans;text-indent:0;text-align:start;text-decoration:none;text-decoration-line:none;letter-spacing:normal;word-spacing:normal;text-transform:none;writing-mode:lr-tb;direction:ltr;baseline-shift:baseline;text-anchor:start;display:inline;overflow:visible;visibility:visible;opacity:1;fill:#000000;fill-opacity:1;stroke:none;stroke-width:3.99999976;marker:none;enable-background:accumulate"
       d="M 17.8125,6 A 2.0001999,2.0001999 0 0 0 16,8 v 76 a 2.0001999,2.0001999 0 1 0 4,0 V 10 h 34 v 18 a 2.0001999,2.0001999 0 0 0 2,2 h 18 v 8 H 30 a 2.0002,2.0002 0 0 0 -2,2 v 39.53125 a 2.0002,2.0002 0 0 0 2,2 H 74 V 90 H 18 a 2.0001999,2.0001999 0 1 0 0,4 h 58 a 2.0001999,2.0001999 0 0 0 2,-2 V 81.53125 h 4 a 2.0002,2.0002 0 0 0 2,-2 V 40 A 2.0002,2.0002 0 0 0 82,38 H 78 V 27 a 2.0001999,2.0001999 0 0 0 -0.59375,-1.4375 l -19,-19 A 2.0001999,2.0001999 0 0 0 57,6 H 18 A 2.0001999,2.0001999 0 0 0 17.8125,6 Z M 58,11.8125 72.1875,26 H 58 Z M 32,42 h 13 v 9 H 32 Z m 17,0 h 14 v 9 H 49 Z m 18,0 h 13 v 9 H 67 Z M 32,55 h 13 v 9 H 32 Z m 17,0 h 14 v 9 H 49 Z m 18,0 h 13 v 9 H 67 Z M 32,68 h 13 v 9.53125 H 32 Z m 17,0 h 14 v 9.53125 H 49 Z m 18,0 h 13 v 9.53125 H 67 Z"
       transform="translate(0,952.36215)"
       id="path2"
       inkscape:connector-curvature="0" />
  </g>
</svg>
